HIERARCHY
ROOT Head
{
	OFFSET 0 0 0
	CHANNELS 6 Xposition Yposition Zposition Zrotation Xrotation Yrotation
	JOINT Brows_Inner_Up
	{
		OFFSET -11.000 0 0
		CHANNELS 3 Zrotation Xrotation Yrotation
		End Site
		{
			OFFSET 0 0 10
		}
	}
	JOINT Brows_Inner_Down
	{
		OFFSET -9.000 0 0
		CHANNELS 3 Zrotation Xrotation Yrotation
		End Site
		{
			OFFSET 0 0 10
		}
	}
	JOINT Brows_Outer_Up
	{
		OFFSET -7.000 0 0
		CHANNELS 3 Zrotation Xrotation Yrotation
		End Site
		{
			OFFSET 0 0 10
		}
	}
	JOINT Brows_Outer_Down
	{
		OFFSET -5.000 0 0
		CHANNELS 3 Zrotation Xrotation Yrotation
		End Site
		{
			OFFSET 0 0 10
		}
	}
	JOINT Lip_Stretch
	{
		OFFSET -3.000 0 0
		CHANNELS 3 Zrotation Xrotation Yrotation
		End Site
		{
			OFFSET 0 0 10
		}
	}
	JOINT Lip_Kiss
	{
		OFFSET -1.000 0 0
		CHANNELS 3 Zrotation Xrotation Yrotation
		End Site
		{
			OFFSET 0 0 10
		}
	}
	JOINT Lip_Corners_Up
	{
		OFFSET 1.000 0 0
		CHANNELS 3 Zrotation Xrotation Yrotation
		End Site
		{
			OFFSET 0 0 10
		}
	}
	JOINT Lip_Corners_Down
	{
		OFFSET 3.000 0 0
		CHANNELS 3 Zrotation Xrotation Yrotation
		End Site
		{
			OFFSET 0 0 10
		}
	}
	JOINT Upper_Lip_Up
	{
		OFFSET 5.000 0 0
		CHANNELS 3 Zrotation Xrotation Yrotation
		End Site
		{
			OFFSET 0 0 10
		}
	}
	JOINT Upper_Lip_Down
	{
		OFFSET 7.000 0 0
		CHANNELS 3 Zrotation Xrotation Yrotation
		End Site
		{
			OFFSET 0 0 10
		}
	}
	JOINT Jaw_Open
	{
		OFFSET 9.000 0 0
		CHANNELS 3 Zrotation Xrotation Yrotation
		End Site
		{
			OFFSET 0 0 10
		}
	}
}
MOTION
Frames:	19
Frame Time:	0.0333333
3.042264 -1.622370 -97.574196 1.429309 -0.422123 4.050491 0 -0.000000 0 0 9.839138 0 0 0.000000 0 0 23.836004 0 0 71.654472 0 0 0.000000 0 0 -0.000000 0 0 13.795611 0 0 0.000000 0 0 12.345070 0 0 28.444201 0
3.038603 -1.617314 -97.575821 1.444509 -0.411331 4.066019 0 -0.000000 0 0 9.615977 0 0 0.000000 0 0 23.582203 0 0 70.974800 0 0 0.000000 0 0 -0.000000 0 0 13.381140 0 0 0.000000 0 0 12.742194 0 0 28.281992 0
3.056899 -1.643030 -97.566628 1.365709 -0.466322 3.989022 0 -0.000000 0 0 8.752357 0 0 0.000000 0 0 22.602018 0 0 68.363022 0 0 0.000000 0 0 -0.000000 0 0 11.784178 0 0 0.000000 0 0 14.267063 0 0 27.662081 0
3.056899 -1.643030 -97.566628 1.365709 -0.466322 3.989022 0 -0.000000 0 0 8.752357 0 0 0.000000 0 0 22.602018 0 0 68.363022 0 0 0.000000 0 0 -0.000000 0 0 11.784178 0 0 0.000000 0 0 14.267063 0 0 27.662081 0
3.063895 -1.652846 -97.563148 1.335692 -0.487308 3.959552 0 -0.000000 0 0 8.580624 0 0 0.000000 0 0 22.407166 0 0 67.844200 0 0 0.000000 0 0 -0.000000 0 0 11.466819 0 0 0.000000 0 0 14.569947 0 0 27.539032 0
3.065699 -1.655376 -97.562233 1.327955 -0.492718 3.951951 0 -0.000000 0 0 8.547963 0 0 0.000000 0 0 22.370117 0 0 67.745544 0 0 0.000000 0 0 -0.000000 0 0 11.406475 0 0 0.000000 0 0 14.627537 0 0 27.515638 0
3.066823 -1.656951 -97.561691 1.323143 -0.496084 3.947222 0 -0.000000 0 0 8.530958 0 0 0.000000 0 0 22.350821 0 0 67.694183 0 0 0.000000 0 0 -0.000000 0 0 11.375049 0 0 0.000000 0 0 14.657521 0 0 27.503460 0
3.068156 -1.658822 -97.561028 1.317425 -0.500083 3.941603 0 -0.000000 0 0 8.515707 0 0 0.000000 0 0 22.333515 0 0 67.648102 0 0 0.000000 0 0 -0.000000 0 0 11.346870 0 0 0.000000 0 0 14.684415 0 0 27.492540 0
3.068156 -1.658822 -97.561028 1.317425 -0.500083 3.941603 0 -0.000000 0 0 8.515707 0 0 0.000000 0 0 22.333515 0 0 67.648102 0 0 0.000000 0 0 -0.000000 0 0 11.346870 0 0 0.000000 0 0 14.684415 0 0 27.492540 0
2.880253 -1.660173 -97.594788 1.335075 -0.413978 4.848683 0 -0.000000 0 0 8.705669 0 0 0.000000 0 0 21.840635 0 0 77.107323 0 0 0.000000 0 0 -0.000000 0 0 9.419746 0 0 0.000000 0 0 12.075821 0 0 28.732311 0
2.824861 -1.660627 -97.604736 1.340111 -0.388697 5.116103 0 -0.000000 0 0 8.738571 0 0 0.000000 0 0 21.754000 0 0 78.761688 0 0 0.000000 0 0 -0.000000 0 0 9.081872 0 0 0.000000 0 0 11.619917 0 0 28.949028 0
2.818928 -1.660730 -97.605804 1.340489 -0.386086 5.144768 0 -0.000000 0 0 8.729717 0 0 0.000000 0 0 21.775835 0 0 78.335068 0 0 0.000000 0 0 -0.000000 0 0 9.168032 0 0 0.000000 0 0 11.737842 0 0 28.893030 0
2.755383 -1.504236 -97.862450 1.602481 0.020848 4.955569 0 -0.000000 0 0 10.490738 0 0 0.000000 0 0 16.182068 0 0 100.361763 0 0 0.000000 0 0 -0.000000 0 0 3.166798 0 0 0.000000 0 0 -0.348087 0 0 32.050537 0
2.540368 -1.463574 -97.989548 1.994734 -0.113167 5.863235 0 -0.000000 0 0 6.842594 0 0 0.000000 0 0 15.613264 0 0 97.338364 0 0 0.000000 0 0 -0.000000 0 0 6.490163 0 0 1.282510 0 0 -3.533191 0 0 32.065159 0
2.485695 -1.460196 -98.011932 2.095452 -0.177600 6.116125 0 -0.000000 0 0 6.066059 0 0 0.000000 0 0 15.949377 0 0 94.899979 0 0 0.000000 0 0 -0.000000 0 0 7.575083 0 0 1.506949 0 0 -3.109383 0 0 31.796997 0
2.321501 -1.573039 -98.063553 1.858117 -0.530170 6.247149 0 -0.000000 0 0 10.210851 0 0 0.000000 0 0 26.937750 0 0 99.497513 0 0 0.000000 0 0 -0.000000 0 0 9.509744 0 0 4.077602 0 0 -2.082974 0 0 38.964558 0
2.044820 -1.622012 -98.111176 1.797218 -0.609862 6.607290 0 3.322513 0 0 -0.372027 0 0 0.000000 0 0 34.552902 0 0 103.037170 0 0 0.000000 0 0 7.430050 0 0 -0.419740 0 0 14.816895 0 0 -1.245026 0 0 43.679066 0
1.952088 -1.395680 -98.201683 2.372454 -0.194983 6.327615 0 7.121438 0 0 -2.402522 0 0 0.000000 0 0 33.081306 0 0 102.835205 0 0 0.000000 0 0 12.664721 0 0 -2.303488 0 0 33.092369 0 0 -0.698722 0 0 48.228409 0
1.803140 -1.440271 -98.113922 2.770141 -0.420918 6.738728 0 0.672007 0 0 -1.391730 0 0 0.000000 0 0 21.011305 0 0 98.637863 0 0 0.000000 0 0 13.592647 0 0 -1.322872 0 0 32.973526 0 0 -0.197567 0 0 49.275578 0
